<svg width="173" height="40" viewBox="0 0 173 40" fill="none" xmlns="http://www.w3.org/2000/svg">
<path d="M105.457 14.512C107.089 14.512 108.401 15.016 109.393 16.024C110.401 17.016 110.905 18.408 110.905 20.2V28H107.545V20.656C107.545 19.616 107.281 18.824 106.753 18.28C106.225 17.72 105.505 17.44 104.593 17.44C103.681 17.44 102.953 17.72 102.409 18.28C101.881 18.824 101.617 19.616 101.617 20.656V28H98.2571V20.656C98.2571 19.616 97.9931 18.824 97.4651 18.28C96.9371 17.72 96.2171 17.44 95.3051 17.44C94.3771 17.44 93.6411 17.72 93.0971 18.28C92.5691 18.824 92.3051 19.616 92.3051 20.656V28H88.9451V14.704H92.3051V16.312C92.7371 15.752 93.2891 15.312 93.9611 14.992C94.6491 14.672 95.4011 14.512 96.2171 14.512C97.2571 14.512 98.1851 14.736 99.0011 15.184C99.8171 15.616 100.449 16.24 100.897 17.056C101.329 16.288 101.953 15.672 102.769 15.208C103.601 14.744 104.497 14.512 105.457 14.512Z" fill="white"/>
<path d="M119.997 28.216C118.717 28.216 117.565 27.936 116.541 27.376C115.517 26.8 114.709 25.992 114.117 24.952C113.541 23.912 113.253 22.712 113.253 21.352C113.253 19.992 113.549 18.792 114.141 17.752C114.749 16.712 115.573 15.912 116.613 15.352C117.653 14.776 118.813 14.488 120.093 14.488C121.373 14.488 122.533 14.776 123.573 15.352C124.613 15.912 125.429 16.712 126.021 17.752C126.629 18.792 126.933 19.992 126.933 21.352C126.933 22.712 126.621 23.912 125.997 24.952C125.389 25.992 124.557 26.8 123.501 27.376C122.461 27.936 121.293 28.216 119.997 28.216ZM119.997 25.288C120.605 25.288 121.173 25.144 121.701 24.856C122.245 24.552 122.677 24.104 122.997 23.512C123.317 22.92 123.477 22.2 123.477 21.352C123.477 20.088 123.141 19.12 122.469 18.448C121.813 17.76 121.005 17.416 120.045 17.416C119.085 17.416 118.277 17.76 117.621 18.448C116.981 19.12 116.661 20.088 116.661 21.352C116.661 22.616 116.973 23.592 117.597 24.28C118.237 24.952 119.037 25.288 119.997 25.288Z" fill="white"/>
<path d="M136.766 14.512C138.35 14.512 139.63 15.016 140.606 16.024C141.582 17.016 142.07 18.408 142.07 20.2V28H138.71V20.656C138.71 19.6 138.446 18.792 137.918 18.232C137.39 17.656 136.67 17.368 135.758 17.368C134.83 17.368 134.094 17.656 133.55 18.232C133.022 18.792 132.758 19.6 132.758 20.656V28H129.398V14.704H132.758V16.36C133.206 15.784 133.774 15.336 134.462 15.016C135.166 14.68 135.934 14.512 136.766 14.512Z" fill="white"/>
<path d="M157.625 21.064C157.625 21.544 157.593 21.976 157.529 22.36H147.809C147.889 23.32 148.225 24.072 148.817 24.616C149.409 25.16 150.137 25.432 151.001 25.432C152.249 25.432 153.137 24.896 153.665 23.824H157.289C156.905 25.104 156.169 26.16 155.081 26.992C153.993 27.808 152.657 28.216 151.073 28.216C149.793 28.216 148.641 27.936 147.617 27.376C146.609 26.8 145.817 25.992 145.241 24.952C144.681 23.912 144.401 22.712 144.401 21.352C144.401 19.976 144.681 18.768 145.241 17.728C145.801 16.688 146.585 15.888 147.593 15.328C148.601 14.768 149.761 14.488 151.073 14.488C152.337 14.488 153.465 14.76 154.457 15.304C155.465 15.848 156.241 16.624 156.785 17.632C157.345 18.624 157.625 19.768 157.625 21.064ZM154.145 20.104C154.129 19.24 153.817 18.552 153.209 18.04C152.601 17.512 151.857 17.248 150.977 17.248C150.145 17.248 149.441 17.504 148.865 18.016C148.305 18.512 147.961 19.208 147.833 20.104H154.145Z" fill="white"/>
<path d="M172.798 14.704L164.566 34.288H160.99L163.87 27.664L158.542 14.704H162.31L165.742 23.992L169.222 14.704H172.798Z" fill="white"/>
<path d="M34.1422 5.85781C30.3647 2.08031 25.3422 0 20 0C14.6578 0 9.63531 2.08031 5.85781 5.85781C2.08031 9.63531 0 14.6578 0 20C0 25.3422 2.08039 30.3646 5.85781 34.1422C9.63523 37.9198 14.6578 40 20 40C25.3422 40 30.3647 37.9197 34.1422 34.1422C37.9197 30.3647 40 25.3422 40 20C40 14.6578 37.9196 9.63539 34.1422 5.85781Z" fill="#33CC95"/>
<g clip-path="url(#clip0)">
<path d="M20.5714 8V33.1429" stroke="white" stroke-width="2" stroke-linecap="round" stroke-linejoin="round"/>
<path d="M26.2857 12.5714H17.7143C16.6534 12.5714 15.636 12.9929 14.8859 13.743C14.1357 14.4931 13.7143 15.5106 13.7143 16.5714C13.7143 17.6323 14.1357 18.6497 14.8859 19.3999C15.636 20.15 16.6534 20.5714 17.7143 20.5714H23.4286C24.4894 20.5714 25.5069 20.9929 26.257 21.743C27.0072 22.4932 27.4286 23.5106 27.4286 24.5714C27.4286 25.6323 27.0072 26.6497 26.257 27.3999C25.5069 28.15 24.4894 28.5714 23.4286 28.5714H13.7143" stroke="white" stroke-width="2" stroke-linecap="round" stroke-linejoin="round"/>
</g>
<path d="M67.117 18.752C66.781 18.136 66.319 17.667 65.731 17.345C65.143 17.023 64.457 16.862 63.673 16.862C62.805 16.862 62.035 17.058 61.363 17.45C60.691 17.842 60.166 18.402 59.788 19.13C59.41 19.858 59.221 20.698 59.221 21.65C59.221 22.63 59.41 23.484 59.788 24.212C60.18 24.94 60.719 25.5 61.405 25.892C62.091 26.284 62.889 26.48 63.799 26.48C64.919 26.48 65.836 26.186 66.55 25.598C67.264 24.996 67.733 24.163 67.957 23.099H62.917V20.852H70.855V23.414C70.659 24.436 70.239 25.381 69.595 26.249C68.951 27.117 68.118 27.817 67.096 28.349C66.088 28.867 64.954 29.126 63.694 29.126C62.28 29.126 60.999 28.811 59.851 28.181C58.717 27.537 57.821 26.648 57.163 25.514C56.519 24.38 56.197 23.092 56.197 21.65C56.197 20.208 56.519 18.92 57.163 17.786C57.821 16.638 58.717 15.749 59.851 15.119C60.999 14.475 62.273 14.153 63.673 14.153C65.325 14.153 66.76 14.559 67.978 15.371C69.196 16.169 70.036 17.296 70.498 18.752H67.117ZM77.2511 29.147C76.2291 29.147 75.3051 28.972 74.4791 28.622C73.6671 28.272 73.0231 27.768 72.5471 27.11C72.0711 26.452 71.8261 25.675 71.8121 24.779H74.9621C75.0041 25.381 75.2141 25.857 75.5921 26.207C75.9841 26.557 76.5161 26.732 77.1881 26.732C77.8741 26.732 78.4131 26.571 78.8051 26.249C79.1971 25.913 79.3931 25.479 79.3931 24.947C79.3931 24.513 79.2601 24.156 78.9941 23.876C78.7281 23.596 78.3921 23.379 77.9861 23.225C77.5941 23.057 77.0481 22.875 76.3481 22.679C75.3961 22.399 74.6191 22.126 74.0171 21.86C73.4291 21.58 72.9181 21.167 72.4841 20.621C72.0641 20.061 71.8541 19.319 71.8541 18.395C71.8541 17.527 72.0711 16.771 72.5051 16.127C72.9391 15.483 73.5481 14.993 74.3321 14.657C75.1161 14.307 76.0121 14.132 77.0201 14.132C78.5321 14.132 79.7571 14.503 80.6951 15.245C81.6471 15.973 82.1721 16.995 82.2701 18.311H79.0361C79.0081 17.807 78.7911 17.394 78.3851 17.072C77.9931 16.736 77.4681 16.568 76.8101 16.568C76.2361 16.568 75.7741 16.715 75.4241 17.009C75.0881 17.303 74.9201 17.73 74.9201 18.29C74.9201 18.682 75.0461 19.011 75.2981 19.277C75.5641 19.529 75.8861 19.739 76.2641 19.907C76.6561 20.061 77.2021 20.243 77.9021 20.453C78.8541 20.733 79.6311 21.013 80.2331 21.293C80.8351 21.573 81.3531 21.993 81.7871 22.553C82.2211 23.113 82.4381 23.848 82.4381 24.758C82.4381 25.542 82.2351 26.27 81.8291 26.942C81.4231 27.614 80.8281 28.153 80.0441 28.559C79.2601 28.951 78.3291 29.147 77.2511 29.147Z" fill="white"/>
<defs>
<clipPath id="clip0">
<rect width="27.4286" height="27.4286" fill="white" transform="translate(6.85715 6.85714)"/>
</clipPath>
</defs>
</svg>
